<svg height="166" viewBox="0 0 250 166" width="250" xmlns="http://www.w3.org/2000/svg"><g fill="none" transform="translate(1)"><path d="m95.2271992 37.735148c-8.8239488.0068134-17.5867438-1.4641258-25.9248127-4.3518114-11.1780964-3.8648386-20.3355003-9.1956699-27.2176048-15.8444616-13.0182354-12.57689878-23.6912408-14.4722988-30.3510406-13.8481882-7.20915018.67590991-11.40543261 4.36751584-11.44695624 4.40474021l-.28678486-.31970784c.04236114-.03806189 4.32515255-3.81344949 11.6657928-4.51001599 4.3047064-.40820967 8.8063344.30303698 13.3802099 2.11465747 5.703818 2.25914618 11.5369227 6.24593795 17.3372096 11.84960615 6.8368013 6.605067 15.9409392 11.9032952 27.0594732 15.7473634 20.4112054 7.0568962 43.4154275 5.3483525 63.1141275-4.6877498 6.522125-3.3231375 12.968333-5.5914104 19.159316-6.7417904 7.806834-1.4510161 15.2106-1.1142143 22.007239 1.0003379 14.935454 4.6465419 25.137019 4.4001274 31.065021 3.3756712 6.396085-1.1055214 9.298117-3.3179986 9.326638-3.3402292l.26382.339005c-.120167.0934153-3.016325 2.3007772-9.517476 3.4244276-5.97477 1.0328442-16.249317 1.2830339-31.265509-3.3888825-15.204308-4.7296922-30.603441.4964967-40.844013 5.7139927-9.736402 4.9869005-20.367967 7.9861226-31.275145 8.8228871-2.0906522.1600129-4.1738204.2401482-6.2495048.2401482z" fill="#3f3d56"/><circle cx="94.360209" cy="38.712085" fill="#387ed1" r="4.352447"/><circle cx="161.790998" cy="21.317518" fill="#387ed1" r="4.352447"/><circle cx="21.560726" cy="4.352447" fill="#387ed1" r="4.352447"/><path d="m125.572403 104.041507v42.053412h6.612171v-38.350596h26.448685v38.350596h6.612173v-84.1068232h-6.612173c-2.191088 0-5.554224 11.411452-5.554224 22.8781136 0 8.6430573 1.009389 16.0502456 2.444688 19.1752976zm33.060856 0h-.064312c.021599-.04703.042906-.096664.064312-.145627z" fill="#3f3d56"/><path d="m150.075427 41.1732248h-.000022c-5.42751 0-9.82738 4.8828868-9.82738 10.9062301v7.6527245h2.353635l1.362615-2.8353959-.340658 2.8353959h15.128211l1.238742-2.5776321-.309683 2.5776321h1.703274v-6.0087597c0-6.9312731-5.063093-12.5501949-11.308734-12.5501949z" fill="#2f2e41"/><path d="m138.814977 91.1720554-6.033931 2.5644209-20.967902 17.0458487c-.771014.947479-1.243505 2.102458-1.357635 3.318662-.150848 1.961027-6.486473 12.218706-4.223749 13.576341s10.408527 5.430541 10.861082 2.71527c.452555-2.71527 2.866117-14.330582 2.866117-14.330582l20.213661-18.1017868z" fill="#2f2e41"/><path d="m115.131804 128.129872-2.564419 7.542411s2.715271 2.866116 1.357635 5.279689v8.296652h-2.111874l-.603394-4.374598s-2.405436 4.319331-3.620357 4.374598c-2.546908.115859-7.5904903 1.021802-7.7413399-.335833-.1508495-1.357635 3.8192889-2.681125 3.8192889-2.681125l4.22375-11.615315 1.810178-7.089866z" fill="#2f2e41"/><path d="m154.503192 89.2110285s1.357635 13.2746445-2.564421 15.6882155-21.269599 10.106832-21.269599 10.106832 7.391563 6.939019 5.883081 8.598349c-1.508483 1.65933-8.296652 6.184777-9.201743 5.279689-.905091-.905089-11.01192-11.766162-9.805135-15.235671 1.206786-3.46951 17.95094-14.7831272 17.95094-14.7831272l1.961027-7.0898665.603393-5.7322334 6.335626-4.0729055z" fill="#2f2e41"/><circle cx="147.592101" cy="52.015696" fill="#ffb9b9" r="6.288608"/><path d="m152.466742 54.5913699s-.301697 5.7322312 4.374598 7.5424108c4.676295 1.8101795-11.615314 13.5763411-11.615314 13.5763411v-13.1238054s2.111876-2.2627239 0-5.7322312z" fill="#ffb9b9"/><path d="m162.498147 81.5177703-1.206785 5.8830808-3.620357 20.2136679s3.016965 8.598349-1.055938 8.447501c-4.072904-.150847-2.111875-9.35259-2.111875-9.35259l2.111875-16.7441538v-6.4864704z" fill="#ffb9b9"/><path d="m136.552253 78.6516525-1.357635 5.2796891-6.184778 14.9339742s-4.223751 7.0898662-.754241 6.9390192c3.469509-.150848 3.469509-6.9390192 3.469509-6.9390192l7.089867-12.0678586v-6.7881759z" fill="#ffb9b9"/><path d="m135.496315 122.699336 4.977992 4.676295s3.469509-.754241 4.827142 3.31866 2.262724 6.637322 2.262724 6.637322l-1.810177 1.055938-2.262724-3.167812s-1.357635 5.732233-2.71527 6.184778c-1.357636.452544-8.145812 3.469509-7.542411 0l3.31866-4.827145s.452544-5.430541-.905089-5.883081-4.977992-4.97799-4.977992-4.97799z" fill="#2f2e41"/><path d="m154.742327 93.8873237s-14.179735-5.1288395-15.084824-4.6762952c-.67372.2976379-1.391306.4838863-2.124736.5514722l.012862-2.0599483s4.676295-1.65933 7.240713-.6033918c2.564419 1.0559383 10.408529 5.7322334 10.408529 5.7322334z" fill="#3f3d56"/><path d="m146.131116 72.693148s4.072906-4.6762951 5.279687-7.5424107c.763516-1.7375274 2.164973-3.1156069 3.915096-3.8497891 0 0 9.057845 2.0396181 8.907004 5.659975-.150841 3.620357-5.732233 9.201743-5.732233 9.201743s.754241 20.0628072-3.31866 19.7611167c-.878494-1.0484341-1.498528-2.2885014-1.81018-3.6203569-.452544-2.1118744-14.48143-4.3745982-14.48143-4.3745982s-1.206785 2.1118743-1.357635 1.2067856c-.150849-.9050887 1.206786-23.0797789 1.206786-23.0797789l7.193495-4.7548863z" fill="#d0cde1"/><path d="m163.070916 65.5036623.101011.0566934c.656422.3683673 1.062775 1.0624782 1.062671 1.815196l-.001549 11.1948918c.002285.6158913.275132 1.199657.746171 1.5964562.581082.4942591 1.119927 1.2064828.007924 1.5771503-1.810179.6033939-8.900046 3.6203569-9.050893 2.5644208s-.452546-2.2627238 0-2.2627238c.354284 0 2.465184-10.8170583 4.161322-15.442018.20966-.5730573.66022-1.0252525 1.232514-1.2369878.572295-.2117353 1.208674-.1616822 1.740829.1369211z" fill="#d0cde1"/><path d="m140.776004 65.5278579-2.111877.6033918-2.413571 10.4085285s-2.866116.6033918-1.961027 1.65933 4.676295 3.7712065 4.676295 3.7712065z" fill="#d0cde1"/><path d="m152.869172 44.1775306c-.958525-1.2871596-2.461936-2.0543622-4.066652-2.0752448h-.19294c-3.720028 0-6.735689 3.3661965-6.735689 7.5186146v.0000172h1.246481l.201305-1.5322552.295151 1.5322552h7.39282l.619378-1.2963162-.154848 1.2963162h1.454379c.678665 3.3704213-.296463 6.7408419-2.925386 10.1112618h2.477499l1.238742-2.5926322-.309681 2.5926322h4.722719l.929061-5.9630679c0-4.4657865-2.594751-8.2526824-6.192339-9.5915809z" fill="#2f2e41"/><path d="m26.5288551 113.75796c1.5869686-3.455255 2.7030169-11.645145 2.7030169-21.2014839 0-12.6783026-3.7185052-25.2955653-6.1411195-25.2955653h-7.3108505v92.9940952h7.3108505v-42.402967h29.2434254v42.402967h7.3108569v-46.497046zm-3.4381112-.161014c.0236673.054136.0472295.109021.0711094.161014h-.0711094z" fill="#3f3d56"/><path d="m57.0011852 96.7928885s8.8046572 3.6507115 6.0129366 5.7981885c-2.7917205 2.147478-8.5899094-2.576972-8.3751617-3.2212157.2147478-.6442432-.8589909-2.1474774-.8589909-2.1474774z" fill="#9f616a"/><path d="m49.2702667 68.0166918 2.7917206 2.5769729.6442432 7.5161707 2.1474774 7.9456663s3.6507115 7.5161707 3.0064683 9.0194049c-.6442432 1.5032341.6442432 1.9327296.6442432 1.9327296l-4.939198 1.9327296s-5.3686934-6.0129366-5.3686934-7.301423 1.0737387-23.622251 1.0737387-23.622251z" fill="#575a88"/><path d="m49.2702667 68.0166918 2.7917206 2.5769729.6442432 7.5161707 2.1474774 7.9456663s3.6507115 7.5161707 3.0064683 9.0194049c-.6442432 1.5032341.6442432 1.9327296.6442432 1.9327296l-4.939198 1.9327296s-5.3686934-6.0129366-5.3686934-7.301423 1.0737387-23.622251 1.0737387-23.622251z" fill="#000" opacity=".1"/><path d="m75.6842383 145.325877s-1.0737387 4.939198-1.2884865 5.368693c-.2147477.429496 4.080207 1.93273 4.080207 1.93273l5.1539457-3.650712s-2.1474774-4.72445-2.1474774-5.583441z" fill="#575a88"/><path d="m47.5522848 97.2223839 1.5032342 1.7179819s31.1384217 3.8654592 31.7826649 9.8783962c.6442432 6.012936 5.1539457 34.359637 2.5769729 35.218628-2.5769729.858991-9.2341527 4.080207-9.2341527 2.362225 0-1.717981-4.2949547-25.340232-3.4359638-29.635187 0 0-37.1513583-4.72445-38.0103493-10.093144-.8589909-5.368693.858991-7.7309182.858991-7.7309182z" fill="#2f2e41"/><path d="m47.5522848 97.2223839 1.5032342 1.7179819s31.1384217 3.8654592 31.7826649 9.8783962c.6442432 6.012936 5.1539457 34.359637 2.5769729 35.218628-2.5769729.858991-9.2341527 4.080207-9.2341527 2.362225 0-1.717981-4.2949547-25.340232-3.4359638-29.635187 0 0-37.1513583-4.72445-38.0103493-10.093144-.8589909-5.368693.858991-7.7309182.858991-7.7309182z" fill="#000" opacity=".1"/><path d="m75.2547428 150.265075s-.858991-1.93273-1.2884864-1.288487c-.4294955.644244-1.9327296 8.160414-.4294955 8.160414 1.5032342 0 15.2470893 3.435964 17.1798189 3.006469 1.9327296-.429496 5.5834411.214747 5.1539457-1.93273-.4294955-2.147477-2.5769729-2.362225-2.5769729-2.362225s-7.9456662-4.72445-8.3751617-7.086675c-.4294955-2.362226-2.7917206-1.073739-2.7917206-1.073739v1.503234s-4.5097024 3.435964-6.8719275 1.073739z" fill="#2f2e41"/><path d="m34.4526729 51.6958639s1.5032342 7.301423-1.7179819 7.9456662c-3.221216.6442432 4.080207 4.9391979 4.080207 4.9391979l4.7244502 2.5769729 3.4359638-3.4359638s-3.1138422-6.3350582-.7516171-11.0595084-9.771022-.9663648-9.771022-.9663648z" fill="#9f616a"/><path d="m44.975312 63.7217371-3.4359638 3.4359638-4.7244502-2.5769729s-7.301423-4.2949547-4.080207-4.9391979c2.0723157-.4144631 2.1882666-3.5841397 2.0100389-5.7917464-.0581768-.722743-.1556735-1.4417811-.292057-2.1539198 0 0 12.1332471-3.7580854 9.771022.9663648-.3589185.7295538-.6078567 1.508223-.7387193 2.3106856-.7237256 4.2455563 1.4903364 8.7488228 1.4903364 8.7488228z" fill="#9f616a"/><path d="m57.0011358 151.55349v4.939198h8.160414l.6442432-1.932729-.8589909-5.153946z" fill="#575a88"/><path d="m23.2857907 101.517339s0 12.670116 5.1539456 13.099612c5.1539457.429495 23.622251 2.79172 23.622251 2.79172s1.0737387 21.045278 3.0064683 27.917206c1.9327296 6.871927.2147477 7.301423 1.9327296 7.730918 1.7179819.429496 9.0194049-1.073738 8.8046572-2.576973-.2147477-1.503234-1.0737387-39.513583-1.0737387-39.513583s1.9327297-8.160414-23.8369987-12.0258732z" fill="#2f2e41"/><path d="m57.6454284 154.989525s-1.2884864-2.791721-1.5032341-1.93273c-.2147478.858991-2.7917206 8.375162-.2147478 9.019405 2.5769729.644243 10.7373869 4.080207 16.1060803 3.865459 5.3686934-.214747 6.0129366-.429495 6.0129366-.429495s1.5032341-2.147477-.4294955-3.435964c-1.9327296-1.288486-9.8783959-8.804657-10.3078913-9.663648-.4294955-.858991-3.6507116-1.503234-3.6507116 0s-4.5097024 4.509703-6.0129366 2.576973z" fill="#2f2e41"/><path d="m44.2236949 52.6622287c-.3589185.7295538-.6078567 1.508223-.7387193 2.3106856-1.0694437.6463907-1.7845666.481035-3.1267399.481035-1.9907115 0-2.7938681-2.5447607-4.080207-3.8654593-.1009314-1.2262096-1.8253558.1073739-1.8253558.1073739s12.1332471-3.7580854 9.771022.9663648z" fill="#000" opacity=".1"/><circle cx="39.821369" cy="48.2599" fill="#9f616a" r="7.086675"/><path d="m52.0619873 70.5936647s-1.0737387 7.7309185-1.7179819 10.522639c-.6442432 2.7917206-1.5032341 15.6765848-1.9327296 17.3945666-.4294955 1.7179817-3.0064683 2.1474777-8.160414 1.5032347-.3235485-.0407356-.6489479-.0651048-.9749547-.0730147-3.1739716-.1009315-6.8053429 1.0866237-10.1661578 2.0186287-1.9327297.536869-3.7774127.98784-5.3944632 1.060854-2.4481242.111669-3.1653816-2.602743-3.08163-5.5404918.0794567-2.7337387.854696-5.6650453 1.5783959-6.7001294 1.3035338-1.8640103.0214748-18.5993014.502529-24.1183182v-.0021475c.072982-.8418111.1868026-1.42163.3564619-1.6492626 1.2884864-1.7179819 9.6636481-6.0129366 10.6020958-5.8389909.9363001.1739456 8.9399482 5.1947477 8.9399482 5.1947477 1.9327296 0 1.8704528-2.0959379 1.8704528-2.0959379s1.3507632 2.5254334 3.9277361 3.1696766c2.5769728.6442432 3.6507115 5.1539457 3.6507115 5.1539457z" fill="#575a88"/><path d="m37.706681 98.4341517s13.8331901.4404605 11.4099015 2.0839443c-2.4232886 1.643484-13.1606754 3.14672-13.3754231.999243-.2147478-2.1474777 1.9655216-3.0831873 1.9655216-3.0831873z" fill="#9f616a"/><path d="m39.2758985 99.9410838c.045097.8246312-2.1732192 2.6821992-2.8905045 3.9384732-.3972833.695783-3.4724537-.22119-7.2756533-1.919844-2.9184864-1.30994-5.7496952-2.8062412-8.4760932-4.4796382.0794567-2.7337387.854696-5.6650453 1.5783959-6.7001294 1.3035338-1.8640103.0214748-18.5993014.502529-24.1183182v-.0021475c.1146816-.0582237.2338923-.1070597.3564619-.1460285h2.5769729c8.8046571 4.080207-1.2884864 21.6895214-1.2884864 21.6895214s13.3143596 10.9521345 14.602846 11.38163c.1738506.0329424.3030563.1798475.3135317.3564812z" fill="#000" opacity=".1"/><path d="m25.6480158 65.2249713h-2.5769729s-2.3622251.6442432-4.2949547 4.9391979-9.01940491 17.6093143-2.7917206 22.76326c6.2276844 5.1539457 19.542044 11.1668818 20.401035 9.6636478.8589909-1.503234 3.8654592-3.8654589 2.5769728-4.2949544s-14.6028461-11.38163-14.6028461-11.38163 10.0931436-17.6093144 1.2884865-21.6895213z" fill="#575a88"/><path d="m38.7311264 44.9622961s.3109977-4.3051573 4.1476099-2.5497578 3.5862636-3.0830602 2.4268642-3.9380719-1.1226862-1.0666005-5.3630928-.4945404c-4.2404067.57206-12.4729179 1.5412982-9.8109823 10.0674812 2.6619357 8.5261831 5.0727711 6.3328141 5.0727711 6.3328141s-2.1159095-7.672447.0280117-6.2107193l2.1439146 1.4617299 1.1313534-.2396306z" fill="#2f2e41"/><path d="m197.038639 106.954285c0-3.876164-28.804006-7.0184217-64.335535-7.0184217-35.5315294 0-64.335538 3.1422577-64.335538 7.0184217 0 1.502296 4.3291125 2.894179 11.6973715 4.035787v48.017512h3.5092099v-47.522424c11.8013223 1.521339 29.4294266 2.487547 49.1289566 2.487547 19.862325 0 37.619959-.982146 49.421389-2.525278v47.560155h3.50921v-48.06355c7.189342-1.132927 11.404936-2.507534 11.404936-3.989749z" fill="#3f3d56"/><ellipse cx="140.76308" cy="103.879564" fill="#f2f2f2" rx="13.099612" ry="3.221216"/><ellipse cx="140.76308" cy="103.879564" fill="#d0cde1" rx="10.737387" ry="2.640341"/><ellipse cx="92.015344" cy="106.456537" fill="#f2f2f2" rx="13.099612" ry="3.221216"/><ellipse cx="92.015344" cy="106.456537" fill="#d0cde1" rx="10.737387" ry="2.640341"/><ellipse cx="140.45822" cy="102.666074" fill="#9f616a" rx="6.244948" ry="1"/><g fill="#387ed1"><ellipse cx="137.130322" cy="101.228093" rx="1.972089" ry="1.068215"/><ellipse cx="136.390788" cy="101.228093" rx="1.972089" ry="1.068215"/><ellipse cx="145.018676" cy="101.474604" rx="1.972089" ry="1.068215"/><ellipse cx="140.499305" cy="101.228093" rx="1.972089" ry="1.068215"/><ellipse cx="143.868292" cy="101.228093" rx="1.972089" ry="1.068215"/></g><path d="m146.415585 100.570731c-3.564173 1.209477-7.563134 1.209477-11.996897 0v-.16643c-.001543-2.6115832 2.04521-4.7655399 4.653473-4.8972082 1.056949-.0531894 2.115938-.0518333 3.172747.0040631 2.345874.1366472 4.176514 2.0818712 4.170677 4.4317146z" fill="#3f3d56"/><path d="m144.665766 105.098921c-2.63399.266027-5.28808.266027-7.92207 0-1.294413-.127011-2.281871-1.214388-2.283911-2.515016h12.489894c-.002041 1.300628-.9895 2.388005-2.283913 2.515016z" fill="#3f3d56"/><path d="m138.773728 97.0374045c-.578479.2410324-1.229268.2410324-1.807746 0 .578478-.2410324 1.229267-.2410324 1.807746 0z" fill="#d0cde1"/><path d="m140.581477 97.7769377c-.578479.2410324-1.229268.2410324-1.807747 0 .578479-.2410323 1.229268-.2410323 1.807747 0z" fill="#d0cde1"/><path d="m140.745817 96.4622113c-.578479.2410321-1.229268.2410321-1.807747 0 .578479-.2410324 1.229268-.2410324 1.807747 0z" fill="#d0cde1"/><path d="m144.114801 96.4622113c-.578479.2410329-1.229268.2410329-1.807747 0 .578479-.2410329 1.229268-.2410329 1.807747 0z" fill="#d0cde1"/><path d="m143.210927 97.2017445c-.578479.2410324-1.229267.2410324-1.807746 0 .578479-.2410324 1.229267-.2410324 1.807746 0z" fill="#d0cde1"/><ellipse cx="91.925232" cy="105.243047" fill="#9f616a" rx="6.244948" ry="1"/><ellipse cx="88.597333" cy="103.805066" fill="#387ed1" rx="1.972089" ry="1.068215"/><ellipse cx="87.8578" cy="103.805066" fill="#387ed1" rx="1.972089" ry="1.068215"/><ellipse cx="96.485688" cy="104.051577" fill="#387ed1" rx="1.972089" ry="1.068215"/><ellipse cx="91.966317" cy="103.805066" fill="#387ed1" rx="1.972089" ry="1.068215"/><ellipse cx="95.335303" cy="103.805066" fill="#387ed1" rx="1.972089" ry="1.068215"/><path d="m97.8825969 103.147703c-3.5641736 1.209478-7.5631343 1.209478-11.9968972 0v-.166429c-.0015431-2.611583 2.0452102-4.7655401 4.6534727-4.8972083 1.0569491-.0531895 2.1159381-.0518333 3.1727475.004063 2.3458742.1366473 4.1765141 2.0818713 4.170677 4.4317143z" fill="#3f3d56"/><path d="m96.1327775 107.675894c-2.6339899.266027-5.2880798.266027-7.9220697 0-1.294413-.127012-2.2818709-1.214389-2.2839109-2.515016h12.4898937c-.0020412 1.300628-.9894997 2.388004-2.2839131 2.515016z" fill="#3f3d56"/><path d="m90.2407396 99.6143774c-.5784789.2410323-1.2292675.2410323-1.8077464 0 .5784789-.2410324 1.2292675-.2410324 1.8077464 0z" fill="#d0cde1"/><path d="m92.0484882 100.353911c-.578479.241032-1.2292675.241032-1.8077464 0 .578479-.241033 1.2292674-.241033 1.8077464 0z" fill="#d0cde1"/><path d="m92.2128282 99.0391841c-.578479.2410322-1.2292674.2410322-1.8077464 0 .578479-.2410321 1.2292674-.2410321 1.8077464 0z" fill="#d0cde1"/><path d="m95.5818122 99.0391841c-.5784789.2410329-1.2292676.2410329-1.8077465 0 .5784789-.2410328 1.2292676-.2410328 1.8077465 0z" fill="#d0cde1"/><path d="m94.6779389 99.7787174c-.5784789.2410326-1.2292674.2410326-1.8077464 0 .578479-.2410322 1.2292674-.2410322 1.8077464 0z" fill="#d0cde1"/><path d="m152.032401 103.006752.030175.665174.038489.862745s-3.962455.223937-4.760687 1.067425c-.018508.018128-.035537.037707-.050925.058549l-1.587171-.347428-.003934-.781883s.021889-.012187.064457-.035152c.009732-.00503.021893-.011487.034061-.017942 1.942174-.951032 4.073085-1.453894 6.235535-1.471488z" fill="#387ed1"/><path d="m152.032401 103.006752.030175.665174c-1.757116.054331-5.082476 1.101749-5.082476 1.101749l-1.217304-.277493c1.950591-.963524 4.094081-1.472739 6.269605-1.48943z" fill="#000" opacity=".1"/><path d="m145.796862 104.47824 1.183242.295435.360278.828421c-.018508.018128-.035537.037707-.050925.058549l-1.587175-.347428-.003934-.781883s.021889-.012187.064457-.035152c.009728-.00503.021889-.011487.034057-.017942z" fill="#fff" opacity=".1"/><path d="m104.143656 105.798472.030174.665175.03849.862745s-3.962455.223936-4.7606871 1.067425c-.018508.018128-.0355373.037707-.0509252.058549l-1.5871705-.347428-.0039342-.781884s.0218893-.012186.0644566-.035152c.0097323-.005029.0218935-.011486.0340611-.017942 1.9421739-.951031 4.0730853-1.453893 6.2355353-1.471488z" fill="#387ed1"/><path d="m104.143656 105.798472.030174.665175c-1.757115.054331-5.082475 1.101748-5.082475 1.101748l-1.217304-.277493c1.9505912-.963523 4.094081-1.472739 6.269605-1.48943z" fill="#000" opacity=".1"/><path d="m97.9081164 107.26996 1.1832428.295435.360278.828422c-.018508.018128-.0355373.037707-.0509252.058549l-1.5871748-.347428-.0039342-.781884s.0218893-.012186.0644566-.035152c.009728-.005029.0218892-.011486.0340568-.017942z" fill="#fff" opacity=".1"/><path d="m175.896984 83.0823987c-.338046-.337733-.734378-.6115557-1.169866-.8082525v-8.3442767c0-.2037438-.165167-.3689108-.368911-.3689108h-2.065677c-.203744 0-.368911.165167-.368911.3689108v8.1842145c-1.531468.5079531-2.565401 1.9397266-2.565914 3.5532354v17.8996206c0 .435031.172816.852244.480429 1.159857.307614.307613.724827.480427 1.159858.480427h4.424774c.901704 0 1.632684-.730975 1.632684-1.632679v-17.6962532c.001265-1.048987-.415658-2.0552094-1.158466-2.7958931z" fill="#3f3d56"/><path d="m169.357708 88.291204h7.69774v10.168621h-7.69774z" fill="#387ed1"/><path d="m174.893427 74.1311612h-.166309v-.2012917c0-.2037438-.165167-.3689108-.368911-.3689108h-2.065677c-.203744 0-.368911.165167-.368911.3689108v.2012917h-.16631v.8553058h.16631v4.3715553h2.803499v-4.3715553h.166309z" fill="#387ed1"/><path d="m114.261938 90.3250302c-.203733-.4347868-.364526-.7423227-.420809-.8481612-3.455306.8526903-5.760681.1321386-6.124234.0047009-.177768.3357473-1.287698 2.4818395-1.736302 4.5393977-.405246 1.8559122-.170035 3.1000984.699127 3.6980205l.025754.0183459.005652.0037752c.959422.6321873 1.874652 1.1920862 2.719995 1.6639793.113913.063395.2213.1223039.322163.1767267l.010793.0058604.007598.0096358c.116067.1462087.224093.2986243.323599.4565706.186811.261182.300165.567682.32825.887566v9.217831l-.058229.001229c-2.204039.044934-3.568267.418586-3.568267.738947 0 .351473 1.635873.743134 3.983218.743134s3.983193-.391661 3.983193-.743134c0-.315607-1.341134-.687174-3.507767-.737216l-.058461-.00139.054477-8.526597c.001298-.577299.135499-1.146548.392205-1.6636339.043752-.0869149.090771-.171446.139736-.2511002.039329-.0640894.080999-.1266282.123826-.1856688l.007851-.0108512.011766-.0064424c.108538-.0592704.223786-.1234986.345744-.1926846l.014313-.0077824c.800068-.4518593 1.662117-.9816935 2.562475-1.5751532.803865-.5299502 1.083757-1.6010496.831892-3.1834634-.239979-1.508794-.904432-3.1344043-1.419558-4.2324417z" fill="#d0cde1"/><path d="m114.468407 97.5477117c-.94396.62218-1.723288 1.088814-2.319275 1.4250252h-.000539c-.869463-.0593564-1.742622-.0348335-2.607383.073229-.610958-.3410194-1.435185-.8301053-2.449166-1.4982542-.009621-.0064145-.019242-.012829-.028862-.0197782v-.0005348c-.930073-.6398215-.953051-1.994826-.650514-3.380299.769709-.0855233 1.996967-.0481035 3.645957.5409345 1.9526.6975458 3.996599.3030714 5.181094-.0555917.194566 1.2224429.0759 2.3566953-.771312 2.9152692z" fill="#387ed1"/><circle cx="108.855958" cy="93.378462" fill="#387ed1" r="1"/><circle cx="108.107631" cy="95.83725" fill="#fff" r="1"/><circle cx="109.49738" cy="94.019885" fill="#387ed1" r="1"/><circle cx="110.138803" cy="97.066645" fill="#fff" r="1"/><circle cx="109.016312" cy="97.227001" fill="#fff" r="1"/><circle cx="112.276879" cy="91.88181" fill="#387ed1" r="1"/><path d="m126.798574 81.6351085c-.203733-.434789-.364526-.742325-.420809-.8481634-3.455306.8526903-5.760681.1321386-6.124234.0047009-.177768.3357473-1.287698 2.4818395-1.736302 4.5393977-.405246 1.8559144-.170035 3.1000983.699124 3.6980226l.025757.0183438.005652.0037752c.959422.6321873 1.874651 1.1920862 2.719995 1.6639793.113914.063395.221301.1223039.322162.1767267l.010794.0058604.007597.0096358c.116067.1462094.224094.2986257.323599.456573.186814.2611831.300169.5676853.328253.8875717v9.2178318l-.058229.001226c-2.20404.044936-3.568267.418587-3.568267.738947 0 .351476 1.635873.743135 3.983218.743135s3.983192-.391659 3.983192-.743135c0-.315606-1.341134-.687173-3.507766-.737216l-.058463-.001389.054479-8.5265978c.001297-.577299.135498-1.1465479.392205-1.6636336.043752-.0869148.090771-.171446.139736-.2511002.039329-.0640893.080998-.1266282.123826-.1856666l.007851-.0108534.011766-.0064424c.108538-.0592704.223786-.1234993.345744-.1926867l.014313-.0077825c.800068-.4518593 1.662115-.9816935 2.562475-1.5751531.803865-.5299502 1.083756-1.6010475.831892-3.1834634-.239981-1.5087961-.904434-3.1344086-1.41956-4.2324438z" fill="#d0cde1"/><path d="m127.005043 88.8577878c-.94396.62218-1.723288 1.088814-2.319275 1.4250252h-.000535c-.869463-.0593564-1.742622-.0348335-2.607383.073229-.610958-.3410194-1.435185-.8301053-2.449166-1.4982542-.009621-.0064145-.019242-.012829-.028864-.0197783v-.0005347c-.930073-.6398194-.953051-1.9948261-.650512-3.3802968.769709-.0855255 1.996967-.0481035 3.645957.5409323 1.9526.6975458 3.996599.3030714 5.181094-.0555917.194561 1.222445.075896 2.3566953-.771316 2.9152692z" fill="#387ed1"/><circle cx="121.392594" cy="84.68854" fill="#387ed1" r="1"/><circle cx="120.644267" cy="87.147326" fill="#fff" r="1"/><circle cx="122.034015" cy="85.329961" fill="#387ed1" r="1"/><circle cx="122.675439" cy="88.376721" fill="#fff" r="1"/><circle cx="121.552948" cy="88.537077" fill="#fff" r="1"/><circle cx="124.813515" cy="83.191886" fill="#387ed1" r="1"/></g></svg>